<?xml version="1.0" encoding="UTF-8" standalone="no"?>
<!DOCTYPE svg PUBLIC "-//W3C//DTD SVG 1.1//EN" "http://www.w3.org/Graphics/SVG/1.1/DTD/svg11.dtd">
<svg width="100%" height="100%" viewBox="0 0 467 460" version="1.1" xmlns="http://www.w3.org/2000/svg" xmlns:xlink="http://www.w3.org/1999/xlink" xml:space="preserve" xmlns:serif="http://www.serif.com/" style="fill-rule:evenodd;clip-rule:evenodd;stroke-linejoin:round;stroke-miterlimit:2;">
    <g id="Artboard1" transform="matrix(1.11366,0,0,1.66358,-155.445,-135.113)">
        <rect x="139.58" y="81.218" width="418.58" height="276.382" style="fill:none;"/>
        <g transform="matrix(0.98584,0,0,0.659957,620.821,48.813)">
            <circle cx="-274.484" cy="259.861" r="197.931" style="fill:rgb(0,12,102);"/>
        </g>
        <g id="Layer_1" transform="matrix(1.97976,0,0,1.32532,183.228,108.601)">
            <path d="M137.801,18.157C135.319,15.841 131.347,16.089 128.948,18.488L96.266,51.17C94.942,52.494 92.791,52.494 91.55,51.17C90.226,49.846 90.226,47.695 91.55,46.454L121.088,16.916C123.653,14.352 123.57,10.215 120.84,7.815C118.357,5.498 114.386,5.747 111.987,8.146L52.58,67.552C51.257,68.876 49.105,68.876 47.864,67.552C46.54,66.229 46.54,64.077 47.864,62.836L99.99,10.711C102.554,8.146 102.472,4.009 99.741,1.61C97.259,-0.707 93.288,-0.459 90.888,1.941L38.928,53.901C37.605,55.224 35.453,55.224 34.212,53.901C32.889,52.577 32.889,50.426 34.212,49.184L71.61,11.787C74.092,9.304 74.092,5.333 71.61,2.851C69.128,0.369 65.157,0.369 62.674,2.851L2.937,62.505C0.455,64.987 0.455,68.959 2.937,71.441C4.178,72.682 5.75,73.261 7.405,73.261C9.06,73.261 10.632,72.682 11.873,71.441L20.478,62.836C21.802,61.512 23.953,61.512 25.194,62.836C26.518,64.16 26.518,66.311 25.194,67.552L1.862,90.885C-0.621,93.367 -0.621,97.338 1.862,99.82C3.103,101.061 4.675,101.641 6.329,101.641C7.984,101.641 9.556,101.061 10.797,99.82L34.13,76.488C35.453,75.164 37.605,75.164 38.846,76.488C40.17,77.812 40.17,79.963 38.846,81.204L8.067,112.066C5.585,114.548 5.585,118.519 8.067,121.001C9.308,122.243 10.88,122.822 12.535,122.822C14.19,122.822 15.762,122.243 17.003,121.001L53.739,84.266C54.07,84.017 54.401,83.769 54.732,83.438C55.062,83.107 55.311,82.776 55.559,82.445L77.898,60.106C79.222,58.782 81.373,58.782 82.614,60.106C83.938,61.43 83.938,63.581 82.614,64.822L18.492,128.944C16.01,131.427 16.01,135.398 18.492,137.88C19.733,139.121 21.305,139.7 22.96,139.7C24.615,139.7 26.187,139.121 27.428,137.88L138.049,27.341C140.531,24.777 140.449,20.64 137.801,18.157Z" style="fill:url(#_Linear1);fill-rule:nonzero;"/>
            <path d="M166.842,80.542C169.324,78.06 169.324,74.089 166.842,71.607C164.36,69.124 160.389,69.124 157.906,71.607L144.089,85.424C142.765,86.748 140.614,86.748 139.373,85.424C138.049,84.1 138.049,81.949 139.373,80.708L161.381,58.699C163.946,56.134 163.864,51.998 161.133,49.598C158.651,47.281 154.68,47.53 152.28,49.929L97.756,104.454L95.356,102.054C94.032,100.731 94.032,98.579 95.356,97.338L151.453,41.242C154.018,38.677 153.935,34.54 151.205,32.14C148.722,29.824 144.751,30.072 142.352,32.471L32.475,142.431C29.993,144.913 29.993,148.884 32.475,151.367C33.716,152.608 35.288,153.187 36.943,153.187C38.598,153.187 40.17,152.608 41.411,151.367L81.787,110.99C83.111,109.666 85.262,109.666 86.503,110.99C87.827,112.314 87.827,114.465 86.503,115.706L49.85,152.359C47.368,154.842 47.368,158.813 49.85,161.295C51.091,162.536 52.663,163.115 54.318,163.115C55.973,163.115 57.545,162.536 58.786,161.295L125.638,94.442C126.962,93.119 129.113,93.119 130.355,94.442C131.678,95.766 131.678,97.917 130.355,99.158L71.693,157.82C69.211,160.302 69.211,164.274 71.693,166.756C72.934,167.997 74.506,168.576 76.161,168.576C77.816,168.576 79.388,167.997 80.629,166.756L106.112,141.272C107.436,139.949 109.587,139.949 110.828,141.272C112.152,142.596 112.152,144.747 110.828,145.989L101.81,155.007C99.328,157.489 99.328,161.461 101.81,163.943C103.051,165.184 104.623,165.763 106.278,165.763C107.932,165.763 109.504,165.184 110.746,163.943L163.946,110.742C166.511,108.177 166.429,104.04 163.698,101.641C161.216,99.324 157.245,99.572 154.845,101.972L124.48,132.337C123.156,133.66 121.005,133.66 119.764,132.337L117.365,129.937L166.842,80.542Z" style="fill:url(#_Linear2);fill-rule:nonzero;"/>
        </g>
    </g>
    <defs>
        <linearGradient id="_Linear1" x1="0" y1="0" x2="1" y2="0" gradientUnits="userSpaceOnUse" gradientTransform="matrix(-113.367,113.367,-113.367,-113.367,128.386,-12.9946)"><stop offset="0" style="stop-color:rgb(255,117,0);stop-opacity:1"/><stop offset="1" style="stop-color:white;stop-opacity:1"/></linearGradient>
        <linearGradient id="_Linear2" x1="0" y1="0" x2="1" y2="0" gradientUnits="userSpaceOnUse" gradientTransform="matrix(-113.367,113.367,-113.367,-113.367,183.082,41.7017)"><stop offset="0" style="stop-color:rgb(255,117,0);stop-opacity:1"/><stop offset="1" style="stop-color:white;stop-opacity:1"/></linearGradient>
    </defs>
</svg>
