<?xml version="1.0" encoding="UTF-8" standalone="no"?>
<svg
   width="60"
   height="35"
   viewBox="0 0 59.999999 35"
   version="1.1"
   id="svg12"
   sodipodi:docname="sol75-beta.svg"
   inkscape:version="1.1.1 (3bf5ae0d25, 2021-09-20)"
   xmlns:inkscape="http://www.inkscape.org/namespaces/inkscape"
   xmlns:sodipodi="http://sodipodi.sourceforge.net/DTD/sodipodi-0.dtd"
   xmlns="http://www.w3.org/2000/svg"
   xmlns:svg="http://www.w3.org/2000/svg">
  <defs
     id="defs16" />
  <sodipodi:namedview
     id="namedview14"
     pagecolor="#ffffff"
     bordercolor="#666666"
     borderopacity="1.0"
     inkscape:pageshadow="2"
     inkscape:pageopacity="0.0"
     inkscape:pagecheckerboard="0"
     showgrid="false"
     units="px"
     height="42px"
     inkscape:zoom="12.995497"
     inkscape:cx="31.433965"
     inkscape:cy="26.932406"
     inkscape:window-width="1920"
     inkscape:window-height="1011"
     inkscape:window-x="0"
     inkscape:window-y="0"
     inkscape:window-maximized="1"
     inkscape:current-layer="g10" />
  <g
     transform="translate(-493.963,-446.798)"
     id="g10">
    <path
       d="m 498.483,461.265 a 4.325,4.325 0 0 1 -1.854,-1.332 3.106,3.106 0 0 1 -0.666,-1.8 0.346,0.346 0 0 1 0.118,-0.269 0.39,0.39 0 0 1 0.278,-0.109 h 2.394 a 0.741,0.741 0 0 1 0.351,0.073 1.123,1.123 0 0 1 0.3,0.252 1.817,1.817 0 0 0 0.729,0.711 2.7,2.7 0 0 0 1.324,0.279 3.056,3.056 0 0 0 1.493,-0.3 0.908,0.908 0 0 0 0.522,-0.818 0.8,0.8 0 0 0 -0.269,-0.621 2.384,2.384 0 0 0 -0.865,-0.433 q -0.594,-0.189 -1.71,-0.423 a 7.452,7.452 0 0 1 -3.257,-1.313 3.065,3.065 0 0 1 -1.08,-2.521 3.345,3.345 0 0 1 0.621,-1.988 4.038,4.038 0 0 1 1.763,-1.36 6.746,6.746 0 0 1 2.656,-0.486 6.379,6.379 0 0 1 2.744,0.549 4.692,4.692 0 0 1 1.782,1.368 2.9,2.9 0 0 1 0.657,1.611 0.394,0.394 0 0 1 -0.108,0.28 0.348,0.348 0 0 1 -0.27,0.116 h -2.52 a 0.7,0.7 0 0 1 -0.612,-0.323 1.112,1.112 0 0 0 -0.558,-0.64 2.19,2.19 0 0 0 -1.115,-0.261 2.125,2.125 0 0 0 -1.17,0.271 0.882,0.882 0 0 0 -0.414,0.792 0.905,0.905 0 0 0 0.54,0.818 8.152,8.152 0 0 0 2.015,0.6 11.562,11.562 0 0 1 2.691,0.764 3.388,3.388 0 0 1 1.476,1.189 3.3,3.3 0 0 1 0.477,1.844 3.358,3.358 0 0 1 -0.7,2.125 4.407,4.407 0 0 1 -1.945,1.376 7.892,7.892 0 0 1 -2.843,0.477 7.806,7.806 0 0 1 -2.975,-0.498 z m 11.3,-0.737 a 4.754,4.754 0 0 1 -1.566,-3.654 c -0.012,-0.336 -0.018,-0.853 -0.018,-1.548 0,-0.695 0.006,-1.218 0.018,-1.567 a 4.763,4.763 0 0 1 1.583,-3.659 6.9,6.9 0 0 1 8.028,0 4.763,4.763 0 0 1 1.575,3.663 c 0.024,0.7 0.036,1.218 0.036,1.567 0,0.349 -0.012,0.876 -0.036,1.548 a 4.768,4.768 0 0 1 -1.557,3.654 7.156,7.156 0 0 1 -8.055,0 z m 5.526,-2.026 a 2.5,2.5 0 0 0 0.594,-1.737 q 0.036,-1.043 0.036,-1.494 c 0,-0.3 -0.012,-0.785 -0.036,-1.458 a 2.5,2.5 0 0 0 -0.594,-1.736 2,2 0 0 0 -1.494,-0.568 2.025,2.025 0 0 0 -1.512,0.568 2.5,2.5 0 0 0 -0.594,1.736 c -0.012,0.337 -0.018,0.822 -0.018,1.458 0,0.636 0.006,1.146 0.018,1.494 a 2.5,2.5 0 0 0 0.594,1.737 2.025,2.025 0 0 0 1.512,0.568 2,2 0 0 0 1.498,-0.57 z m 6.219,2.953 a 0.434,0.434 0 0 1 -0.135,-0.316 v -11.7 a 0.421,0.421 0 0 1 0.135,-0.323 0.449,0.449 0 0 1 0.315,-0.126 h 2.52 a 0.432,0.432 0 0 1 0.45,0.449 v 9.324 h 5.4 a 0.463,0.463 0 0 1 0.469,0.468 v 1.908 a 0.423,0.423 0 0 1 -0.136,0.324 0.47,0.47 0 0 1 -0.333,0.126 h -8.37 a 0.436,0.436 0 0 1 -0.311,-0.134 z m 11.223,0.017 a 0.4,0.4 0 0 1 -0.108,-0.279 0.341,0.341 0 0 1 0.037,-0.161 l 4.139,-9.217 h -5.345 a 0.463,0.463 0 0 1 -0.469,-0.468 v -1.889 a 0.461,0.461 0 0 1 0.469,-0.468 h 8.513 a 0.455,0.455 0 0 1 0.333,0.134 0.451,0.451 0 0 1 0.135,0.334 v 1.673 a 1.551,1.551 0 0 1 -0.09,0.558 q -0.09,0.234 -0.108,0.27 l -4.139,9.2 a 0.671,0.671 0 0 1 -0.649,0.431 h -2.448 a 0.352,0.352 0 0 1 -0.266,-0.118 z m 11.1,-0.207 a 4.145,4.145 0 0 1 -1.782,-1.386 3.452,3.452 0 0 1 -0.639,-1.889 0.367,0.367 0 0 1 0.378,-0.378 h 2.538 a 0.6,0.6 0 0 1 0.594,0.342 1.834,1.834 0 0 0 0.675,0.863 1.912,1.912 0 0 0 1.053,0.27 1.841,1.841 0 0 0 1.287,-0.467 1.691,1.691 0 0 0 0.513,-1.315 1.627,1.627 0 0 0 -0.5,-1.223 1.786,1.786 0 0 0 -1.3,-0.487 1.84,1.84 0 0 0 -0.72,0.117 2.374,2.374 0 0 0 -0.522,0.316 0.81,0.81 0 0 1 -0.468,0.216 h -2.5 a 0.4,0.4 0 0 1 -0.4,-0.4 l 0.666,-6.317 a 0.548,0.548 0 0 1 0.189,-0.4 0.613,0.613 0 0 1 0.4,-0.143 h 7.326 a 0.432,0.432 0 0 1 0.45,0.449 v 1.8 a 0.445,0.445 0 0 1 -0.126,0.314 0.423,0.423 0 0 1 -0.324,0.135 h -5.238 l -0.216,2.215 a 3.132,3.132 0 0 1 0.972,-0.459 5.243,5.243 0 0 1 1.4,-0.154 4.7,4.7 0 0 1 2.16,0.513 4.084,4.084 0 0 1 1.611,1.449 3.868,3.868 0 0 1 0.6,2.142 4.147,4.147 0 0 1 -0.63,2.26 4.235,4.235 0 0 1 -1.827,1.565 6.52,6.52 0 0 1 -2.817,0.568 6.924,6.924 0 0 1 -2.802,-0.516 z"
       fill="#b0c5de"
       id="path2" />
    <g
       opacity="0.9"
       style="isolation:isolate"
       id="g6"
       transform="translate(-51.503208,15.140135)">
      <rect
         width="35"
         height="12.402069"
         rx="3"
         fill="#374147"
         id="rect4"
         x="558.45898"
         y="451.2178"
         style="stroke-width:0.768488" />
    </g>
    <path
       d="m 512.80679,475.86814 a 0.229,0.229 0 0 1 -0.071,-0.17 v -6.51 a 0.253,0.253 0 0 1 0.066,-0.18 0.224,0.224 0 0 1 0.174,-0.07 h 2.9 a 2.569,2.569 0 0 1 1.75,0.515 1.782,1.782 0 0 1 0.58,1.4 1.527,1.527 0 0 1 -0.85,1.41 1.761,1.761 0 0 1 1,1.6 1.926,1.926 0 0 1 -0.63,1.5 2.531,2.531 0 0 1 -1.76,0.57 h -2.99 a 0.232,0.232 0 0 1 -0.169,-0.065 z m 2.89,-4.06 a 1.122,1.122 0 0 0 0.784,-0.25 0.859,0.859 0 0 0 0.275,-0.67 0.807,0.807 0 0 0 -0.27,-0.65 1.181,1.181 0 0 0 -0.789,-0.23 h -1.551 v 1.8 z m 0.1,3.06 a 1.1,1.1 0 0 0 0.81,-0.286 1.044,1.044 0 0 0 -0.005,-1.449 1.107,1.107 0 0 0 -0.8,-0.285 h -1.65 v 2.02 z m 3.881,1 a 0.229,0.229 0 0 1 -0.071,-0.17 v -6.51 a 0.253,0.253 0 0 1 0.066,-0.18 0.225,0.225 0 0 1 0.175,-0.07 h 4.41 a 0.24,0.24 0 0 1 0.179,0.07 0.244,0.244 0 0 1 0.071,0.18 v 0.67 a 0.227,0.227 0 0 1 -0.071,0.175 0.248,0.248 0 0 1 -0.179,0.065 h -3.281 v 1.75 h 3.061 a 0.24,0.24 0 0 1 0.25,0.25 v 0.63 a 0.23,0.23 0 0 1 -0.07,0.175 0.252,0.252 0 0 1 -0.18,0.065 h -3.061 v 1.81 h 3.36 a 0.253,0.253 0 0 1 0.181,0.065 0.229,0.229 0 0 1 0.069,0.175 v 0.68 a 0.227,0.227 0 0 1 -0.069,0.174 0.254,0.254 0 0 1 -0.181,0.066 h -4.49 a 0.233,0.233 0 0 1 -0.17,-0.07 z m 7.769,0 a 0.229,0.229 0 0 1 -0.07,-0.17 v -5.51 h -1.85 a 0.234,0.234 0 0 1 -0.17,-0.07 0.242,0.242 0 0 1 -0.07,-0.18 v -0.75 a 0.257,0.257 0 0 1 0.065,-0.18 0.226,0.226 0 0 1 0.175,-0.07 h 5.11 a 0.24,0.24 0 0 1 0.25,0.25 v 0.75 a 0.242,0.242 0 0 1 -0.07,0.18 0.247,0.247 0 0 1 -0.18,0.07 h -1.84 v 5.51 a 0.241,0.241 0 0 1 -0.065,0.17 0.231,0.231 0 0 1 -0.175,0.07 h -0.94 a 0.234,0.234 0 0 1 -0.171,-0.07 z m 3.14,0.01 a 0.205,0.205 0 0 1 -0.06,-0.15 l 0.02,-0.09 2.4,-6.45 a 0.361,0.361 0 0 1 0.36,-0.25 h 1.1 a 0.359,0.359 0 0 1 0.36,0.25 l 2.4,6.45 0.02,0.09 a 0.2,0.2 0 0 1 -0.065,0.15 0.209,0.209 0 0 1 -0.145,0.06 h -0.89 a 0.291,0.291 0 0 1 -0.29,-0.191 l -0.46,-1.21 h -2.96 l -0.46,1.21 a 0.29,0.29 0 0 1 -0.29,0.191 h -0.89 a 0.2,0.2 0 0 1 -0.151,-0.06 z m 2.14,-2.5 h 2.26 l -1.13,-3.08 z"
       fill="#ffffff"
       style="isolation:isolate"
       id="path8" />
  </g>
</svg>
